<svg width="58" height="57" viewBox="0 0 58 57" fill="none" xmlns="http://www.w3.org/2000/svg">
<g clip-path="url(#clip0_895_688)">
<path d="M39.4911 0.561035C36.4945 0.768304 32.992 2.68642 30.9509 5.18418C29.089 7.45008 27.5573 10.8156 28.1546 14.0862C31.4287 14.1881 34.8117 12.2243 36.772 9.68436C38.6058 7.32009 39.9934 3.9757 39.4911 0.561035Z" fill="white"/>
<path d="M51.3336 19.4192C48.4565 15.8113 44.413 13.7175 40.5943 13.7175C35.5531 13.7175 33.4207 16.131 29.9182 16.131C26.3069 16.131 23.5632 13.7246 19.2035 13.7246C14.9211 13.7246 10.3612 16.3418 7.47001 20.8174C3.40544 27.1197 4.10102 38.9692 10.6879 49.0621C13.0452 52.6735 16.1929 56.7345 20.3101 56.7697C23.9742 56.8048 25.007 54.4194 29.9709 54.3949C34.9348 54.3667 35.8763 56.8013 39.5334 56.7626C43.6542 56.731 46.974 52.2308 49.3312 48.6194C51.021 46.0303 51.6498 44.727 52.9602 41.8042C43.4293 38.1752 41.9012 24.622 51.3336 19.4192Z" fill="white"/>
</g>
<defs>
<clipPath id="clip0_895_688">
<rect width="56.2087" height="56.2087" fill="white" transform="translate(0.850098 0.561035)"/>
</clipPath>
</defs>
</svg>
