<svg width="57" height="57" viewBox="0 0 57 57" fill="none" xmlns="http://www.w3.org/2000/svg">
<g clip-path="url(#clip0_895_728)">
<path d="M35.1332 17.7193L5.65261 0.777421C5.28216 0.561141 4.81611 0.573157 4.45761 0.789437C4.08716 1.00572 3.86011 1.39021 3.86011 1.82277C3.86011 1.82277 3.87206 3.3848 3.88401 5.95612L25.3581 27.5481L35.1332 17.7193Z" fill="url(#paint0_linear_895_728)"/>
<path d="M3.88428 5.9563C3.92013 15.2323 4.02768 37.7495 4.07548 48.96L25.3703 27.5483L3.88428 5.9563Z" fill="url(#paint1_linear_895_728)"/>
<path d="M52.0069 27.416L35.1335 17.7195L25.3464 27.5482L36.3882 38.6506L52.0188 29.4947C52.3893 29.2785 52.6163 28.8819 52.6163 28.4614C52.6163 28.0288 52.3773 27.6323 52.0069 27.416V27.416Z" fill="url(#paint2_linear_895_728)"/>
<path d="M4.06348 48.9595C4.08738 52.9607 4.09933 55.52 4.09933 55.52C4.09933 55.9525 4.32638 56.3491 4.69683 56.5533C5.06727 56.7696 5.52137 56.7696 5.89182 56.5533L36.4001 38.6622L25.3583 27.5598L4.06348 48.9595Z" fill="url(#paint3_linear_895_728)"/>
</g>
<defs>
<linearGradient id="paint0_linear_895_728" x1="3.86011" y1="14.0899" x2="35.1387" y2="14.0899" gradientUnits="userSpaceOnUse">
<stop stop-color="#63BE6B"/>
<stop offset="0.506" stop-color="#5BBC6A"/>
<stop offset="1" stop-color="#4AB96A"/>
</linearGradient>
<linearGradient id="paint1_linear_895_728" x1="3.87854" y1="27.4633" x2="25.3579" y2="27.4633" gradientUnits="userSpaceOnUse">
<stop stop-color="#3EC6F2"/>
<stop offset="1" stop-color="#45AFE3"/>
</linearGradient>
<linearGradient id="paint2_linear_895_728" x1="25.3579" y1="28.1927" x2="52.6135" y2="28.1927" gradientUnits="userSpaceOnUse">
<stop stop-color="#FAA51A"/>
<stop offset="0.387" stop-color="#FAB716"/>
<stop offset="0.741" stop-color="#FAC412"/>
<stop offset="1" stop-color="#FAC80F"/>
</linearGradient>
<linearGradient id="paint3_linear_895_728" x1="4.06873" y1="42.1372" x2="36.3996" y2="42.1372" gradientUnits="userSpaceOnUse">
<stop stop-color="#EC3B50"/>
<stop offset="1" stop-color="#E7515B"/>
</linearGradient>
<clipPath id="clip0_895_728">
<rect width="56.2087" height="56.2087" fill="white" transform="translate(0.350098 0.561035)"/>
</clipPath>
</defs>
</svg>
