<svg width="1600" height="1201" viewBox="0 0 1600 1201" fill="none" xmlns="http://www.w3.org/2000/svg">
<g clip-path="url(#clip0_708_4813)">
<rect width="1600" height="1200" transform="translate(0 0.111328)" fill="black"/>
<circle cx="395.555" cy="600" r="670" stroke="url(#paint0_linear_708_4813)" stroke-width="2.22222"/>
<path d="M-957.778 600C-957.778 1271.95 -413.057 1816.67 258.889 1816.67C930.835 1816.67 1475.56 1271.95 1475.56 600C1475.56 -71.9463 930.835 -616.667 258.889 -616.667C-413.057 -616.667 -957.778 -71.9463 -957.778 600ZM1353.89 600C1353.89 1204.75 863.641 1695 258.889 1695C-345.863 1695 -836.111 1204.75 -836.111 600C-836.111 -4.75161 -345.863 -495 258.889 -495C863.641 -495 1353.89 -4.75161 1353.89 600Z" fill="#DFB84A" fill-opacity="0.8"/>
<circle cx="1014.04" cy="340.109" r="26.6667" transform="rotate(-12.6482 1014.04 340.109)" fill="#DFB84A"/>
<circle cx="984.963" cy="925.17" r="26.6667" transform="rotate(40.3046 984.963 925.17)" fill="#DFB84A"/>
<circle cx="418.889" cy="600" r="327.778" fill="black"/>
<circle cx="418.889" cy="600" r="492.778" stroke="url(#paint1_linear_708_4813)" stroke-width="3.33333"/>
<circle cx="374.445" cy="600" r="837.778" stroke="url(#paint2_linear_708_4813)" stroke-opacity="0.5" stroke-width="2.22222"/>
<circle cx="1212.22" cy="600" r="21.1111" fill="#DFB84A"/>
<circle cx="782" cy="267.376" r="33.3333" transform="rotate(-12.6482 782 267.376)" fill="#DFB84A"/>
<rect y="0.111328" width="960" height="1137.78" fill="url(#paint3_linear_708_4813)"/>
<rect y="0.111328" width="611.111" height="1137.78" fill="black"/>
</g>
<defs>
<linearGradient id="paint0_linear_708_4813" x1="765" y1="-71.1113" x2="765" y2="1271.11" gradientUnits="userSpaceOnUse">
<stop stop-opacity="0"/>
<stop offset="0.5" stop-color="#DFB84A"/>
<stop offset="1" stop-opacity="0"/>
</linearGradient>
<linearGradient id="paint1_linear_708_4813" x1="776.667" y1="264.445" x2="-45.0001" y2="930" gradientUnits="userSpaceOnUse">
<stop stop-color="#DFB84A"/>
<stop offset="1" stop-opacity="0"/>
</linearGradient>
<linearGradient id="paint2_linear_708_4813" x1="374.445" y1="-238.889" x2="374.445" y2="1438.89" gradientUnits="userSpaceOnUse">
<stop/>
<stop offset="0.5" stop-color="#DFB84A"/>
<stop offset="1"/>
</linearGradient>
<linearGradient id="paint3_linear_708_4813" x1="877.222" y1="544" x2="373.333" y2="544" gradientUnits="userSpaceOnUse">
<stop stop-opacity="0"/>
<stop offset="1"/>
</linearGradient>
<clipPath id="clip0_708_4813">
<rect width="1600" height="1200" fill="white" transform="translate(0 0.111328)"/>
</clipPath>
</defs>
</svg>
